<mxfile host="app.diagrams.net" modified="2021-08-20T16:35:30.051Z" agent="5.0 (Macintosh; Intel Mac OS X 10_15_7) AppleWebKit/537.36 (KHTML, like Gecko) Chrome/92.0.4515.131 Safari/537.36" etag="vm4XEzUE7jjTAJ8aeNaC" version="14.9.4" type="github">
  <diagram id="GZD-yekH0NczYFz6jbJJ" name="Page-1">
    <mxGraphModel dx="1047" dy="784" grid="1" gridSize="10" guides="1" tooltips="1" connect="1" arrows="1" fold="1" page="1" pageScale="1" pageWidth="850" pageHeight="1100" math="0" shadow="0">
      <root>
        <mxCell id="0" />
        <mxCell id="1" parent="0" />
        <mxCell id="WqgZy92nRNSOwf2XWN85-1" value="外部环境&lt;br&gt;一般、直接" style="rounded=0;whiteSpace=wrap;html=1;" vertex="1" parent="1">
          <mxGeometry x="190" y="180" width="120" height="60" as="geometry" />
        </mxCell>
        <mxCell id="WqgZy92nRNSOwf2XWN85-2" value="内部实力&lt;br&gt;优势、劣势" style="rounded=0;whiteSpace=wrap;html=1;" vertex="1" parent="1">
          <mxGeometry x="190" y="290" width="120" height="60" as="geometry" />
        </mxCell>
        <mxCell id="WqgZy92nRNSOwf2XWN85-3" value="战略意图&lt;br&gt;企业使命" style="rounded=0;whiteSpace=wrap;html=1;" vertex="1" parent="1">
          <mxGeometry x="430" y="233" width="120" height="60" as="geometry" />
        </mxCell>
        <mxCell id="WqgZy92nRNSOwf2XWN85-4" value="" style="edgeStyle=elbowEdgeStyle;elbow=horizontal;endArrow=classic;html=1;exitX=1;exitY=0.5;exitDx=0;exitDy=0;entryX=0;entryY=0.25;entryDx=0;entryDy=0;" edge="1" parent="1" source="WqgZy92nRNSOwf2XWN85-1" target="WqgZy92nRNSOwf2XWN85-3">
          <mxGeometry width="50" height="50" relative="1" as="geometry">
            <mxPoint x="400" y="420" as="sourcePoint" />
            <mxPoint x="450" y="370" as="targetPoint" />
          </mxGeometry>
        </mxCell>
        <mxCell id="WqgZy92nRNSOwf2XWN85-5" value="" style="edgeStyle=elbowEdgeStyle;elbow=horizontal;endArrow=classic;html=1;exitX=1;exitY=0.5;exitDx=0;exitDy=0;entryX=0;entryY=0.75;entryDx=0;entryDy=0;" edge="1" parent="1" source="WqgZy92nRNSOwf2XWN85-2" target="WqgZy92nRNSOwf2XWN85-3">
          <mxGeometry width="50" height="50" relative="1" as="geometry">
            <mxPoint x="320" y="220" as="sourcePoint" />
            <mxPoint x="440" y="258" as="targetPoint" />
          </mxGeometry>
        </mxCell>
        <mxCell id="WqgZy92nRNSOwf2XWN85-6" value="机会威胁分析&lt;br&gt;战略决策" style="rounded=0;whiteSpace=wrap;html=1;" vertex="1" parent="1">
          <mxGeometry x="430" y="340" width="120" height="60" as="geometry" />
        </mxCell>
        <mxCell id="WqgZy92nRNSOwf2XWN85-7" value="组织结构" style="rounded=0;whiteSpace=wrap;html=1;" vertex="1" parent="1">
          <mxGeometry x="600" y="430" width="110" height="40" as="geometry" />
        </mxCell>
        <mxCell id="WqgZy92nRNSOwf2XWN85-8" value="创新能力" style="rounded=0;whiteSpace=wrap;html=1;" vertex="1" parent="1">
          <mxGeometry x="710" y="430" width="110" height="40" as="geometry" />
        </mxCell>
        <mxCell id="WqgZy92nRNSOwf2XWN85-9" value="竞争优势" style="rounded=0;whiteSpace=wrap;html=1;" vertex="1" parent="1">
          <mxGeometry x="710" y="470" width="110" height="40" as="geometry" />
        </mxCell>
        <mxCell id="WqgZy92nRNSOwf2XWN85-10" value="战略领导" style="rounded=0;whiteSpace=wrap;html=1;" vertex="1" parent="1">
          <mxGeometry x="600" y="470" width="110" height="40" as="geometry" />
        </mxCell>
        <mxCell id="WqgZy92nRNSOwf2XWN85-11" value="业务层战略" style="rounded=0;whiteSpace=wrap;html=1;" vertex="1" parent="1">
          <mxGeometry x="190" y="430" width="110" height="40" as="geometry" />
        </mxCell>
        <mxCell id="WqgZy92nRNSOwf2XWN85-12" value="职能层战略" style="rounded=0;whiteSpace=wrap;html=1;" vertex="1" parent="1">
          <mxGeometry x="300" y="430" width="110" height="40" as="geometry" />
        </mxCell>
        <mxCell id="WqgZy92nRNSOwf2XWN85-13" value="合作战略" style="rounded=0;whiteSpace=wrap;html=1;" vertex="1" parent="1">
          <mxGeometry x="300" y="470" width="110" height="40" as="geometry" />
        </mxCell>
        <mxCell id="WqgZy92nRNSOwf2XWN85-14" value="竞争战略" style="rounded=0;whiteSpace=wrap;html=1;" vertex="1" parent="1">
          <mxGeometry x="190" y="470" width="110" height="40" as="geometry" />
        </mxCell>
        <mxCell id="WqgZy92nRNSOwf2XWN85-15" value="" style="endArrow=classic;html=1;exitX=0.5;exitY=1;exitDx=0;exitDy=0;entryX=0.5;entryY=0;entryDx=0;entryDy=0;" edge="1" parent="1" source="WqgZy92nRNSOwf2XWN85-3" target="WqgZy92nRNSOwf2XWN85-6">
          <mxGeometry width="50" height="50" relative="1" as="geometry">
            <mxPoint x="400" y="430" as="sourcePoint" />
            <mxPoint x="480" y="330" as="targetPoint" />
          </mxGeometry>
        </mxCell>
        <mxCell id="WqgZy92nRNSOwf2XWN85-16" value="" style="edgeStyle=elbowEdgeStyle;elbow=vertical;endArrow=classic;html=1;exitX=0.75;exitY=1;exitDx=0;exitDy=0;entryX=1;entryY=0;entryDx=0;entryDy=0;" edge="1" parent="1" source="WqgZy92nRNSOwf2XWN85-6" target="WqgZy92nRNSOwf2XWN85-7">
          <mxGeometry width="50" height="50" relative="1" as="geometry">
            <mxPoint x="400" y="430" as="sourcePoint" />
            <mxPoint x="450" y="380" as="targetPoint" />
          </mxGeometry>
        </mxCell>
        <mxCell id="WqgZy92nRNSOwf2XWN85-17" value="" style="edgeStyle=elbowEdgeStyle;elbow=vertical;endArrow=classic;html=1;exitX=0.25;exitY=1;exitDx=0;exitDy=0;entryX=0;entryY=0;entryDx=0;entryDy=0;" edge="1" parent="1" source="WqgZy92nRNSOwf2XWN85-6" target="WqgZy92nRNSOwf2XWN85-12">
          <mxGeometry width="50" height="50" relative="1" as="geometry">
            <mxPoint x="530" y="410" as="sourcePoint" />
            <mxPoint x="720" y="430" as="targetPoint" />
          </mxGeometry>
        </mxCell>
        <mxCell id="WqgZy92nRNSOwf2XWN85-18" value="战略的实施与&lt;br&gt;执行" style="rounded=0;whiteSpace=wrap;html=1;" vertex="1" parent="1">
          <mxGeometry x="430" y="550" width="120" height="60" as="geometry" />
        </mxCell>
        <mxCell id="WqgZy92nRNSOwf2XWN85-19" value="" style="edgeStyle=elbowEdgeStyle;elbow=vertical;endArrow=classic;html=1;exitX=1;exitY=1;exitDx=0;exitDy=0;entryX=0.75;entryY=0;entryDx=0;entryDy=0;" edge="1" parent="1" source="WqgZy92nRNSOwf2XWN85-10" target="WqgZy92nRNSOwf2XWN85-18">
          <mxGeometry width="50" height="50" relative="1" as="geometry">
            <mxPoint x="530" y="410" as="sourcePoint" />
            <mxPoint x="720" y="440" as="targetPoint" />
          </mxGeometry>
        </mxCell>
        <mxCell id="WqgZy92nRNSOwf2XWN85-20" value="" style="edgeStyle=elbowEdgeStyle;elbow=vertical;endArrow=classic;html=1;exitX=1;exitY=1;exitDx=0;exitDy=0;entryX=0.25;entryY=0;entryDx=0;entryDy=0;" edge="1" parent="1" source="WqgZy92nRNSOwf2XWN85-14" target="WqgZy92nRNSOwf2XWN85-18">
          <mxGeometry width="50" height="50" relative="1" as="geometry">
            <mxPoint x="720" y="520" as="sourcePoint" />
            <mxPoint x="530" y="560" as="targetPoint" />
          </mxGeometry>
        </mxCell>
        <mxCell id="WqgZy92nRNSOwf2XWN85-21" value="" style="endArrow=classic;startArrow=classic;html=1;" edge="1" parent="1">
          <mxGeometry width="50" height="50" relative="1" as="geometry">
            <mxPoint x="440" y="470" as="sourcePoint" />
            <mxPoint x="570" y="470" as="targetPoint" />
          </mxGeometry>
        </mxCell>
        <mxCell id="WqgZy92nRNSOwf2XWN85-22" value="" style="edgeStyle=elbowEdgeStyle;elbow=horizontal;endArrow=classic;html=1;exitX=0;exitY=0.5;exitDx=0;exitDy=0;entryX=0;entryY=0.5;entryDx=0;entryDy=0;" edge="1" parent="1" source="WqgZy92nRNSOwf2XWN85-27" target="WqgZy92nRNSOwf2XWN85-2">
          <mxGeometry width="50" height="50" relative="1" as="geometry">
            <mxPoint x="400" y="430" as="sourcePoint" />
            <mxPoint x="450" y="380" as="targetPoint" />
            <Array as="points">
              <mxPoint x="160" y="460" />
            </Array>
          </mxGeometry>
        </mxCell>
        <mxCell id="WqgZy92nRNSOwf2XWN85-23" value="" style="edgeStyle=elbowEdgeStyle;elbow=horizontal;endArrow=classic;html=1;exitX=0;exitY=0.5;exitDx=0;exitDy=0;entryX=0;entryY=0.5;entryDx=0;entryDy=0;" edge="1" parent="1" source="WqgZy92nRNSOwf2XWN85-27" target="WqgZy92nRNSOwf2XWN85-1">
          <mxGeometry width="50" height="50" relative="1" as="geometry">
            <mxPoint x="500" y="620" as="sourcePoint" />
            <mxPoint x="200" y="330" as="targetPoint" />
            <Array as="points">
              <mxPoint x="160" y="410" />
            </Array>
          </mxGeometry>
        </mxCell>
        <mxCell id="WqgZy92nRNSOwf2XWN85-24" value="战略投入" style="text;html=1;strokeColor=none;fillColor=none;align=center;verticalAlign=middle;whiteSpace=wrap;rounded=0;rotation=0;flipV=1;" vertex="1" parent="1">
          <mxGeometry x="130" y="253" width="10" height="20" as="geometry" />
        </mxCell>
        <mxCell id="WqgZy92nRNSOwf2XWN85-25" value="战略行动" style="text;html=1;strokeColor=none;fillColor=none;align=center;verticalAlign=middle;whiteSpace=wrap;rounded=0;rotation=0;flipV=1;" vertex="1" parent="1">
          <mxGeometry x="130" y="450" width="10" height="20" as="geometry" />
        </mxCell>
        <mxCell id="WqgZy92nRNSOwf2XWN85-26" value="战略成果" style="text;html=1;strokeColor=none;fillColor=none;align=center;verticalAlign=middle;whiteSpace=wrap;rounded=0;rotation=0;flipV=1;" vertex="1" parent="1">
          <mxGeometry x="130" y="568" width="10" height="20" as="geometry" />
        </mxCell>
        <mxCell id="WqgZy92nRNSOwf2XWN85-27" value="战略的评价" style="rounded=0;whiteSpace=wrap;html=1;" vertex="1" parent="1">
          <mxGeometry x="430" y="640" width="120" height="30" as="geometry" />
        </mxCell>
        <mxCell id="WqgZy92nRNSOwf2XWN85-28" value="" style="endArrow=classic;html=1;entryX=0.5;entryY=0;entryDx=0;entryDy=0;exitX=0.5;exitY=1;exitDx=0;exitDy=0;" edge="1" parent="1" source="WqgZy92nRNSOwf2XWN85-18" target="WqgZy92nRNSOwf2XWN85-27">
          <mxGeometry width="50" height="50" relative="1" as="geometry">
            <mxPoint x="280" y="430" as="sourcePoint" />
            <mxPoint x="330" y="380" as="targetPoint" />
          </mxGeometry>
        </mxCell>
      </root>
    </mxGraphModel>
  </diagram>
</mxfile>
